HIERARCHY
ROOT root
{
	OFFSET	0	13.1	24.9
	CHANNELS 6  Xposition Yposition Zposition Xrotation Yrotation Zrotation
	JOINT spine_1
	{
		OFFSET	0	9.99999	0
		CHANNELS 3  Xrotation Yrotation Zrotation
		JOINT spine_2
		{
			OFFSET	0	112	-10
			CHANNELS 3  Xrotation Yrotation Zrotation
			JOINT spine_3
			{
				OFFSET	0	206.5	19.3
				CHANNELS 3  Xrotation Yrotation Zrotation
				JOINT spine_4
				{
					OFFSET	0	110.4	14.6
					CHANNELS 3  Xrotation Yrotation Zrotation
					JOINT neck_1
					{
						OFFSET	0	71.8	-50.3
						CHANNELS 3  Xrotation Yrotation Zrotation
						JOINT neck_2
						{
							OFFSET	0	86.2	-25.8
							CHANNELS 3  Xrotation Yrotation Zrotation
							JOINT head_ee
							{
								OFFSET	0	179.8	-8.7
								CHANNELS 3  Xrotation Yrotation Zrotation
								End Site
								{
									OFFSET	1	0	0
								}
							}
						}
					}
					JOINT left_clavicle
					{
						OFFSET	-43.2	22.4	-70.8
						CHANNELS 3  Xrotation Yrotation Zrotation
						JOINT left_shoulder
						{
							OFFSET	-93.9	-5.79999	48.7
							CHANNELS 3  Xrotation Yrotation Zrotation
							JOINT left_elbow
							{
								OFFSET	-291.4	-30.8	15.2
								CHANNELS 3  Xrotation Yrotation Zrotation
								JOINT left_lowarm_twist
								{
									OFFSET	-110.7	-3.89999	13.6
									CHANNELS 3  Xrotation Yrotation Zrotation
									JOINT left_hand
									{
										OFFSET	-110.7	-3.89999	13.6
										CHANNELS 3  Xrotation Yrotation Zrotation
										JOINT left_ee
										{
											OFFSET	-80.8	-5.10001	12.1
											CHANNELS 3  Xrotation Yrotation Zrotation
											End Site
											{
												OFFSET	1	0	0
											}
										}
									}
								}
							}
						}
					}
					JOINT right_clavicle
					{
						OFFSET	43.2	22.4	-70.8
						CHANNELS 3  Xrotation Yrotation Zrotation
						JOINT right_shoulder
						{
							OFFSET	93.9	-5.79999	48.7
							CHANNELS 3  Xrotation Yrotation Zrotation
							JOINT right_elbow
							{
								OFFSET	291.4	-30.8	15.2
								CHANNELS 3  Xrotation Yrotation Zrotation
								JOINT right_lowarm_twist
								{
									OFFSET	110.7	-3.89999	13.6
									CHANNELS 3  Xrotation Yrotation Zrotation
									JOINT right_hand
									{
										OFFSET	110.7	-3.89999	13.6
										CHANNELS 3  Xrotation Yrotation Zrotation
										JOINT right_ee
										{
											OFFSET	80.8	-5.10001	12.1
											CHANNELS 3  Xrotation Yrotation Zrotation
											End Site
											{
												OFFSET	1	0	0
											}
										}
									}
								}
							}
						}
					}
				}
			}
		}
	}
	JOINT left_hip
	{
		OFFSET	-82.8	-127.5	0.300001
		CHANNELS 3  Xrotation Yrotation Zrotation
		JOINT left_knee
		{
			OFFSET	-28.2	-396.7	2.2
			CHANNELS 3  Xrotation Yrotation Zrotation
			JOINT left_ankle
			{
				OFFSET	-11.7	-411.3	35.4
				CHANNELS 3  Xrotation Yrotation Zrotation
				JOINT left_toes
				{
					OFFSET	0	-60	-88.6
					CHANNELS 3  Xrotation Yrotation Zrotation
					JOINT left_foot_ee
					{
						OFFSET	-22.5	-16.5	-42.2
						CHANNELS 3  Xrotation Yrotation Zrotation
						End Site
						{
							OFFSET	1	0	0
						}
					}
				}
			}
		}
	}
	JOINT right_hip
	{
		OFFSET	82.8	-127.5	0.300001
		CHANNELS 3  Xrotation Yrotation Zrotation
		JOINT right_knee
		{
			OFFSET	28.2	-396.7	2.2
			CHANNELS 3  Xrotation Yrotation Zrotation
			JOINT right_ankle
			{
				OFFSET	11.7	-411.3	35.4
				CHANNELS 3  Xrotation Yrotation Zrotation
				JOINT right_toes
				{
					OFFSET	0	-60	-88.6
					CHANNELS 3  Xrotation Yrotation Zrotation
					JOINT right_foot_ee
					{
						OFFSET	22.5	-16.5	-42.2
						CHANNELS 3  Xrotation Yrotation Zrotation
						End Site
						{
							OFFSET	1	0	0
						}
					}
				}
			}
		}
	}
}
MOTION
Frames: 6
Frame Time: 0.02
2800.94 716.97 -1473.77 -7.1846868441 45.2084682158 12.0805191864 2.8964 -0.605555 -2.8418 2.90079 -0.423573 -2.87453 2.92092 0.0419076 -2.90524 2.90938 -0.417254 -2.87546 3.43105 -3.79111 4.8644 3.66788 -10.7503 5.22572 -0.0 0.0 -0.0 12.4284 -27.0766 24.2335 8.37207 27.7423 58.701 0.290985 -8.20261 0.0208648 12.659 0.271227 -1.59105 6.86314 -18.0278 41.1033 -0.0 0.0 -0.0 1.48082 -15.1355 -4.147 -22.3084 5.60218 -68.0254 0.468788 13.0739 -0.0537183 0.0268548 -0.000945383 0.00329938 -1.7171 1.92914 12.4311 0.0 0.0 0.0 9.2955 19.7072 -22.6603 -19.1374 0.304905 2.90734 28.832 -9.79028 -3.91365 -5.04886 0.0 0.0 -0.0 0.0 -0.0 22.7098 -6.71012 1.02085 4.41965 0.207068 0.646319 -8.12395 -7.30332 -1.20822 -5.3281 0.0 0.0 0.0 0.0 0.0 
2799.45819329 716.417 -1489.40028528 -7.73996970876 46.283982597 12.1875277886 3.17981 -0.653893 -2.73327 3.18384 -0.478712 -2.7693 3.20564 -0.0434109 -2.81 3.19495 -0.486482 -2.76795 2.27488 -3.59225 5.49535 2.52293 -10.9323 5.81688 -0.0 0.0 -0.0 11.8928 -27.164 23.0007 6.44964 27.3895 60.5566 0.22607 -6.39 0.0126196 11.442 0.260512 -1.43598 6.67516 -20.5181 37.6804 -0.0 0.0 -0.0 1.39311 -15.1069 -4.00444 -22.3082 5.67532 -68.1366 0.470583 13.1222 -0.054125 0.52958 -0.0183582 0.0651436 -1.75696 1.4564 12.4885 0.0 0.0 0.0 8.91111 18.0729 -22.8842 -19.8387 0.297523 3.01468 31.0348 -9.50193 -4.14811 -4.25191 0.0 0.0 -0.0 0.0 -0.0 23.5931 -5.53129 2.18039 1.9798 0.0865755 0.291446 -5.89487 -7.14554 -0.873535 -3.70367 0.0 0.0 0.0 0.0 0.0 
2799.74873831 716.417 -1489.42510986 -7.59418671199 45.229322645 11.9840378173 3.17981 -0.653893 -2.73327 3.18384 -0.478712 -2.7693 3.20564 -0.0434109 -2.81 3.19495 -0.486482 -2.76795 2.27488 -3.59225 5.49535 2.52293 -10.9323 5.81688 -0.0 0.0 -0.0 11.8928 -27.164 23.0007 6.44964 27.3895 60.5566 0.22607 -6.39 0.0126196 11.442 0.260512 -1.43598 6.67516 -20.5181 37.6804 -0.0 0.0 -0.0 1.39311 -15.1069 -4.00444 -22.3082 5.67532 -68.1366 0.470583 13.1222 -0.054125 0.52958 -0.0183582 0.0651436 -1.75696 1.4564 12.4885 0.0 0.0 0.0 8.91111 18.0729 -22.8842 -19.8387 0.297523 3.01468 31.0348 -9.50193 -4.14811 -4.25191 0.0 0.0 -0.0 0.0 -0.0 23.5931 -5.53129 2.18039 1.9798 0.0865755 0.291446 -5.89487 -7.14554 -0.873535 -3.70367 0.0 0.0 0.0 0.0 0.0 
2800.0067329 716.417 -1489.44260609 -7.47149812839 44.2937859736 11.8098092209 3.17981 -0.653893 -2.73327 3.18384 -0.478712 -2.7693 3.20564 -0.0434109 -2.81 3.19495 -0.486482 -2.76795 2.27488 -3.59225 5.49535 2.52293 -10.9323 5.81688 -0.0 0.0 -0.0 11.8928 -27.164 23.0007 6.44964 27.3895 60.5566 0.22607 -6.39 0.0126196 11.442 0.260512 -1.43598 6.67516 -20.5181 37.6804 -0.0 0.0 -0.0 1.39311 -15.1069 -4.00444 -22.3082 5.67532 -68.1366 0.470583 13.1222 -0.054125 0.52958 -0.0183582 0.0651436 -1.75696 1.4564 12.4885 0.0 0.0 0.0 8.91111 18.0729 -22.8842 -19.8387 0.297523 3.01468 31.0348 -9.50193 -4.14811 -4.25191 0.0 0.0 -0.0 0.0 -0.0 23.5931 -5.53129 2.18039 1.9798 0.0865755 0.291446 -5.89487 -7.14554 -0.873535 -3.70367 0.0 0.0 0.0 0.0 0.0 
2800.26339761 716.417 -1489.45578268 -7.35532983645 43.3637275965 11.6420640555 3.17981 -0.653893 -2.73327 3.18384 -0.478712 -2.7693 3.20564 -0.0434109 -2.81 3.19495 -0.486482 -2.76795 2.27488 -3.59225 5.49535 2.52293 -10.9323 5.81688 -0.0 0.0 -0.0 11.8928 -27.164 23.0007 6.44964 27.3895 60.5566 0.22607 -6.39 0.0126196 11.442 0.260512 -1.43598 6.67516 -20.5181 37.6804 -0.0 0.0 -0.0 1.39311 -15.1069 -4.00444 -22.3082 5.67532 -68.1366 0.470583 13.1222 -0.054125 0.52958 -0.0183582 0.0651436 -1.75696 1.4564 12.4885 0.0 0.0 0.0 8.91111 18.0729 -22.8842 -19.8387 0.297523 3.01468 31.0348 -9.50193 -4.14811 -4.25191 0.0 0.0 -0.0 0.0 -0.0 23.5931 -5.53129 2.18039 1.9798 0.0865755 0.291446 -5.89487 -7.14554 -0.873535 -3.70367 0.0 0.0 0.0 0.0 0.0 
2800.3779296 723.15 -1506.58712665 -8.40810630418 43.0133855969 11.6219713177 3.46144 -0.642446 -2.7169 3.46542 -0.468328 -2.75224 3.48625 -0.0494701 -2.79133 3.47572 -0.48952 -2.74855 -1.55726 -4.17748 6.6911 -1.28687 -12.8563 6.58465 -0.0 0.0 -0.0 12.6382 -27.135 24.707 3.96566 27.6804 60.0211 0.234966 -6.63925 0.0136289 11.0924 0.256825 -1.39147 6.09799 -21.4127 32.5208 -0.0 0.0 -0.0 1.53099 -14.8988 -4.20932 -21.6614 6.18749 -67.3488 0.522003 14.4984 -0.0664005 2.27022 -0.0744381 0.280388 -1.66151 2.06388 12.1108 0.0 0.0 0.0 10.376 16.4723 -22.5198 -22.0102 0.266342 3.3464 33.2963 -8.72505 -4.36816 -2.85422 0.0 0.0 -0.0 0.0 -0.0 23.1517 -7.03452 1.87034 3.28652 0.149224 0.482132 -5.682 -8.55707 -0.841399 -3.97982 0.0 0.0 0.0 0.0 0.0 
